# xmcd
#
# Track frame offsets:
#	150
#	16837
#	29680
#	44290
#	60980
#	75644
#	91472
#	107074
#	123113
#	132873
#	147000
#	161843
#
# Disc length: 2301 seconds
#
# Revision: 2
# Processed by: cddbd v1.5.2PL0 Copyright (c) Steve Scherf et al.
# Submitted via: EZCDDA 4.3.2
#
DISCID=9408fb0c
DTITLE=Oana Sirbu - Te asteptam sa vii, Mos Craciun!
DYEAR=1900
DGENRE=
TTITLE0=Mosul din datini si povesti
TTITLE1=Vin zapezile!
TTITLE2=Te asteptam sa vii, Mos Craciun!
TTITLE3=De Craciun voi fi acasa
TTITLE4=Stai acasa de Craciun
TTITLE5=Vine Mos Craciun
TTITLE6=Mos Craciun, bun venit!
TTITLE7=Sigur este Mos Craciun
TTITLE8=La multi ani, surori si frati!
TTITLE9=Colinde, colinde
TTITLE10=Craciun Fericit!
TTITLE11=Mos Craciun cu plete dalbe
EXTD=
EXTT0=
EXTT1=
EXTT2=
EXTT3=
EXTT4=
EXTT5=
EXTT6=
EXTT7=
EXTT8=
EXTT9=
EXTT10=
EXTT11=
PLAYORDER=
